<mxfile host="app.diagrams.net" agent="Mozilla/5.0 (X11; Linux x86_64) AppleWebKit/537.36 (KHTML, like Gecko) Chrome/136.0.0.0 Safari/537.36" version="26.2.14">
  <diagram name="Page-1" id="2YBvvXClWsGukQMizWep">
    <mxGraphModel dx="1142" dy="1051" grid="0" gridSize="10" guides="1" tooltips="1" connect="1" arrows="1" fold="1" page="1" pageScale="1" pageWidth="850" pageHeight="1100" math="0" shadow="0">
      <root>
        <mxCell id="0" />
        <mxCell id="1" parent="0" />
        <mxCell id="WNuxRkzJSGTTuliTPVV3-1" value="User" style="shape=umlActor;verticalLabelPosition=bottom;verticalAlign=top;html=1;" vertex="1" parent="1">
          <mxGeometry x="56" y="26" width="30" height="60" as="geometry" />
        </mxCell>
        <mxCell id="WNuxRkzJSGTTuliTPVV3-2" value="" style="endArrow=none;dashed=1;html=1;rounded=0;" edge="1" parent="1" source="WNuxRkzJSGTTuliTPVV3-63">
          <mxGeometry width="50" height="50" relative="1" as="geometry">
            <mxPoint x="69" y="994" as="sourcePoint" />
            <mxPoint x="71" y="112" as="targetPoint" />
          </mxGeometry>
        </mxCell>
        <mxCell id="WNuxRkzJSGTTuliTPVV3-4" value=":UserDetailsScreen" style="html=1;whiteSpace=wrap;" vertex="1" parent="1">
          <mxGeometry x="143.5" y="40" width="127" height="37" as="geometry" />
        </mxCell>
        <mxCell id="WNuxRkzJSGTTuliTPVV3-5" value=":RateUserScreen" style="html=1;whiteSpace=wrap;" vertex="1" parent="1">
          <mxGeometry x="325" y="44" width="126" height="31" as="geometry" />
        </mxCell>
        <mxCell id="WNuxRkzJSGTTuliTPVV3-6" value=":RatingConfirmationDialogue" style="html=1;whiteSpace=wrap;" vertex="1" parent="1">
          <mxGeometry x="499" y="39" width="176" height="39" as="geometry" />
        </mxCell>
        <mxCell id="WNuxRkzJSGTTuliTPVV3-7" value=":UserSystem" style="html=1;whiteSpace=wrap;" vertex="1" parent="1">
          <mxGeometry x="729" y="43" width="71" height="32" as="geometry" />
        </mxCell>
        <mxCell id="WNuxRkzJSGTTuliTPVV3-8" value=":Rating" style="html=1;whiteSpace=wrap;" vertex="1" parent="1">
          <mxGeometry x="854" y="44" width="72" height="29" as="geometry" />
        </mxCell>
        <mxCell id="WNuxRkzJSGTTuliTPVV3-9" value="" style="endArrow=none;dashed=1;html=1;rounded=0;entryX=0.5;entryY=1;entryDx=0;entryDy=0;" edge="1" parent="1" source="WNuxRkzJSGTTuliTPVV3-15" target="WNuxRkzJSGTTuliTPVV3-4">
          <mxGeometry width="50" height="50" relative="1" as="geometry">
            <mxPoint x="197" y="522" as="sourcePoint" />
            <mxPoint x="201" y="81" as="targetPoint" />
            <Array as="points">
              <mxPoint x="207" y="106" />
            </Array>
          </mxGeometry>
        </mxCell>
        <mxCell id="WNuxRkzJSGTTuliTPVV3-10" value="" style="endArrow=none;dashed=1;html=1;rounded=0;" edge="1" parent="1" source="WNuxRkzJSGTTuliTPVV3-27">
          <mxGeometry width="50" height="50" relative="1" as="geometry">
            <mxPoint x="380" y="516" as="sourcePoint" />
            <mxPoint x="384" y="75" as="targetPoint" />
          </mxGeometry>
        </mxCell>
        <mxCell id="WNuxRkzJSGTTuliTPVV3-11" value="" style="endArrow=none;dashed=1;html=1;rounded=0;" edge="1" parent="1" source="WNuxRkzJSGTTuliTPVV3-31">
          <mxGeometry width="50" height="50" relative="1" as="geometry">
            <mxPoint x="580" y="519" as="sourcePoint" />
            <mxPoint x="584" y="78" as="targetPoint" />
          </mxGeometry>
        </mxCell>
        <mxCell id="WNuxRkzJSGTTuliTPVV3-12" value="" style="endArrow=none;dashed=1;html=1;rounded=0;" edge="1" parent="1" source="WNuxRkzJSGTTuliTPVV3-19">
          <mxGeometry width="50" height="50" relative="1" as="geometry">
            <mxPoint x="762.5" y="516" as="sourcePoint" />
            <mxPoint x="766.5" y="75" as="targetPoint" />
          </mxGeometry>
        </mxCell>
        <mxCell id="WNuxRkzJSGTTuliTPVV3-13" value="" style="endArrow=none;dashed=1;html=1;rounded=0;" edge="1" parent="1" source="WNuxRkzJSGTTuliTPVV3-39">
          <mxGeometry width="50" height="50" relative="1" as="geometry">
            <mxPoint x="888" y="753" as="sourcePoint" />
            <mxPoint x="892" y="73" as="targetPoint" />
          </mxGeometry>
        </mxCell>
        <mxCell id="WNuxRkzJSGTTuliTPVV3-14" value="chooseToRate()" style="html=1;verticalAlign=bottom;endArrow=block;curved=0;rounded=0;" edge="1" parent="1" target="WNuxRkzJSGTTuliTPVV3-15">
          <mxGeometry width="80" relative="1" as="geometry">
            <mxPoint x="74" y="140" as="sourcePoint" />
            <mxPoint x="193" y="142" as="targetPoint" />
          </mxGeometry>
        </mxCell>
        <mxCell id="WNuxRkzJSGTTuliTPVV3-17" value="" style="endArrow=none;dashed=1;html=1;rounded=0;" edge="1" parent="1" source="WNuxRkzJSGTTuliTPVV3-46" target="WNuxRkzJSGTTuliTPVV3-15">
          <mxGeometry width="50" height="50" relative="1" as="geometry">
            <mxPoint x="201" y="717" as="sourcePoint" />
            <mxPoint x="201" y="491" as="targetPoint" />
            <Array as="points">
              <mxPoint x="209" y="625" />
            </Array>
          </mxGeometry>
        </mxCell>
        <mxCell id="WNuxRkzJSGTTuliTPVV3-15" value="" style="html=1;points=[[0,0,0,0,5],[0,1,0,0,-5],[1,0,0,0,5],[1,1,0,0,-5]];perimeter=orthogonalPerimeter;outlineConnect=0;targetShapes=umlLifeline;portConstraint=eastwest;newEdgeStyle={&quot;curved&quot;:0,&quot;rounded&quot;:0};" vertex="1" parent="1">
          <mxGeometry x="202" y="129" width="10" height="229" as="geometry" />
        </mxCell>
        <mxCell id="WNuxRkzJSGTTuliTPVV3-18" value="checkForExistingRating()" style="html=1;verticalAlign=bottom;endArrow=block;curved=0;rounded=0;" edge="1" parent="1">
          <mxGeometry width="80" relative="1" as="geometry">
            <mxPoint x="208.7" y="144" as="sourcePoint" />
            <mxPoint x="759.4999877929688" y="144" as="targetPoint" />
          </mxGeometry>
        </mxCell>
        <mxCell id="WNuxRkzJSGTTuliTPVV3-20" value="" style="endArrow=none;dashed=1;html=1;rounded=0;" edge="1" parent="1" source="WNuxRkzJSGTTuliTPVV3-36" target="WNuxRkzJSGTTuliTPVV3-19">
          <mxGeometry width="50" height="50" relative="1" as="geometry">
            <mxPoint x="763" y="754.7999877929688" as="sourcePoint" />
            <mxPoint x="766.5" y="75" as="targetPoint" />
          </mxGeometry>
        </mxCell>
        <mxCell id="WNuxRkzJSGTTuliTPVV3-19" value="" style="html=1;points=[[0,0,0,0,5],[0,1,0,0,-5],[1,0,0,0,5],[1,1,0,0,-5]];perimeter=orthogonalPerimeter;outlineConnect=0;targetShapes=umlLifeline;portConstraint=eastwest;newEdgeStyle={&quot;curved&quot;:0,&quot;rounded&quot;:0};" vertex="1" parent="1">
          <mxGeometry x="759.5" y="140" width="10" height="167" as="geometry" />
        </mxCell>
        <mxCell id="WNuxRkzJSGTTuliTPVV3-21" value="returnTrue()" style="html=1;verticalAlign=bottom;endArrow=open;dashed=1;endSize=8;curved=0;rounded=0;" edge="1" parent="1">
          <mxGeometry relative="1" as="geometry">
            <mxPoint x="759.5" y="186" as="sourcePoint" />
            <mxPoint x="212" y="186" as="targetPoint" />
          </mxGeometry>
        </mxCell>
        <mxCell id="WNuxRkzJSGTTuliTPVV3-23" value="showAlreadyExistingRating()" style="html=1;align=left;spacingLeft=2;endArrow=block;rounded=0;edgeStyle=orthogonalEdgeStyle;curved=0;rounded=0;" edge="1" parent="1">
          <mxGeometry relative="1" as="geometry">
            <mxPoint x="206.5" y="198" as="sourcePoint" />
            <Array as="points">
              <mxPoint x="236.5" y="228" />
            </Array>
            <mxPoint x="211.5" y="228" as="targetPoint" />
          </mxGeometry>
        </mxCell>
        <mxCell id="WNuxRkzJSGTTuliTPVV3-24" value="displayAlreadyExisting()" style="html=1;verticalAlign=bottom;endArrow=open;dashed=1;endSize=8;curved=0;rounded=0;" edge="1" parent="1">
          <mxGeometry x="-0.0164" y="-6" relative="1" as="geometry">
            <mxPoint x="194" y="250" as="sourcePoint" />
            <mxPoint x="72" y="250" as="targetPoint" />
            <mxPoint as="offset" />
          </mxGeometry>
        </mxCell>
        <mxCell id="WNuxRkzJSGTTuliTPVV3-25" value="returnFalse()" style="html=1;verticalAlign=bottom;endArrow=open;dashed=1;endSize=8;curved=0;rounded=0;" edge="1" parent="1">
          <mxGeometry relative="1" as="geometry">
            <mxPoint x="754" y="294" as="sourcePoint" />
            <mxPoint x="210" y="294" as="targetPoint" />
          </mxGeometry>
        </mxCell>
        <mxCell id="WNuxRkzJSGTTuliTPVV3-26" value="createRatingForm()" style="html=1;verticalAlign=bottom;endArrow=block;curved=0;rounded=0;" edge="1" parent="1">
          <mxGeometry width="80" relative="1" as="geometry">
            <mxPoint x="212" y="344" as="sourcePoint" />
            <mxPoint x="376" y="344" as="targetPoint" />
          </mxGeometry>
        </mxCell>
        <mxCell id="WNuxRkzJSGTTuliTPVV3-28" value="" style="endArrow=none;dashed=1;html=1;rounded=0;exitX=0.368;exitY=1.005;exitDx=0;exitDy=0;exitPerimeter=0;" edge="1" parent="1" source="WNuxRkzJSGTTuliTPVV3-65" target="WNuxRkzJSGTTuliTPVV3-27">
          <mxGeometry width="50" height="50" relative="1" as="geometry">
            <mxPoint x="378" y="1004" as="sourcePoint" />
            <mxPoint x="384" y="75" as="targetPoint" />
          </mxGeometry>
        </mxCell>
        <mxCell id="WNuxRkzJSGTTuliTPVV3-27" value="" style="html=1;points=[[0,0,0,0,5],[0,1,0,0,-5],[1,0,0,0,5],[1,1,0,0,-5]];perimeter=orthogonalPerimeter;outlineConnect=0;targetShapes=umlLifeline;portConstraint=eastwest;newEdgeStyle={&quot;curved&quot;:0,&quot;rounded&quot;:0};" vertex="1" parent="1">
          <mxGeometry x="376" y="333" width="10" height="80" as="geometry" />
        </mxCell>
        <mxCell id="WNuxRkzJSGTTuliTPVV3-29" value="displayRatingForm()" style="html=1;verticalAlign=bottom;endArrow=open;dashed=1;endSize=8;curved=0;rounded=0;" edge="1" parent="1">
          <mxGeometry x="0.5921" y="-4" relative="1" as="geometry">
            <mxPoint x="374" y="364" as="sourcePoint" />
            <mxPoint x="70" y="364" as="targetPoint" />
            <mxPoint as="offset" />
          </mxGeometry>
        </mxCell>
        <mxCell id="WNuxRkzJSGTTuliTPVV3-30" value="Rate()" style="html=1;verticalAlign=bottom;endArrow=block;curved=0;rounded=0;" edge="1" parent="1" target="WNuxRkzJSGTTuliTPVV3-27">
          <mxGeometry x="0.208" y="1" width="80" relative="1" as="geometry">
            <mxPoint x="71" y="394" as="sourcePoint" />
            <mxPoint x="374" y="391" as="targetPoint" />
            <mxPoint as="offset" />
          </mxGeometry>
        </mxCell>
        <mxCell id="WNuxRkzJSGTTuliTPVV3-32" value="" style="endArrow=none;dashed=1;html=1;rounded=0;" edge="1" parent="1" source="WNuxRkzJSGTTuliTPVV3-51" target="WNuxRkzJSGTTuliTPVV3-31">
          <mxGeometry width="50" height="50" relative="1" as="geometry">
            <mxPoint x="577" y="1013" as="sourcePoint" />
            <mxPoint x="584" y="78" as="targetPoint" />
          </mxGeometry>
        </mxCell>
        <mxCell id="WNuxRkzJSGTTuliTPVV3-31" value="" style="html=1;points=[[0,0,0,0,5],[0,1,0,0,-5],[1,0,0,0,5],[1,1,0,0,-5]];perimeter=orthogonalPerimeter;outlineConnect=0;targetShapes=umlLifeline;portConstraint=eastwest;newEdgeStyle={&quot;curved&quot;:0,&quot;rounded&quot;:0};" vertex="1" parent="1">
          <mxGeometry x="576" y="394" width="10" height="308" as="geometry" />
        </mxCell>
        <mxCell id="WNuxRkzJSGTTuliTPVV3-33" value="displayConfDialogue()" style="html=1;verticalAlign=bottom;endArrow=block;curved=0;rounded=0;" edge="1" parent="1" target="WNuxRkzJSGTTuliTPVV3-31">
          <mxGeometry width="80" relative="1" as="geometry">
            <mxPoint x="389" y="407" as="sourcePoint" />
            <mxPoint x="469" y="407" as="targetPoint" />
          </mxGeometry>
        </mxCell>
        <mxCell id="WNuxRkzJSGTTuliTPVV3-34" value="returnDialogue()" style="html=1;verticalAlign=bottom;endArrow=open;dashed=1;endSize=8;curved=0;rounded=0;" edge="1" parent="1">
          <mxGeometry relative="1" as="geometry">
            <mxPoint x="574" y="450" as="sourcePoint" />
            <mxPoint x="66" y="450" as="targetPoint" />
          </mxGeometry>
        </mxCell>
        <mxCell id="WNuxRkzJSGTTuliTPVV3-35" value="chooseConfirm()" style="html=1;verticalAlign=bottom;endArrow=block;curved=0;rounded=0;" edge="1" parent="1" target="WNuxRkzJSGTTuliTPVV3-31">
          <mxGeometry width="80" relative="1" as="geometry">
            <mxPoint x="70" y="510" as="sourcePoint" />
            <mxPoint x="562" y="510" as="targetPoint" />
          </mxGeometry>
        </mxCell>
        <mxCell id="WNuxRkzJSGTTuliTPVV3-37" value="" style="endArrow=none;dashed=1;html=1;rounded=0;exitX=0.793;exitY=0.997;exitDx=0;exitDy=0;exitPerimeter=0;" edge="1" parent="1" source="WNuxRkzJSGTTuliTPVV3-65" target="WNuxRkzJSGTTuliTPVV3-36">
          <mxGeometry width="50" height="50" relative="1" as="geometry">
            <mxPoint x="763" y="1009" as="sourcePoint" />
            <mxPoint x="763" y="307" as="targetPoint" />
          </mxGeometry>
        </mxCell>
        <mxCell id="WNuxRkzJSGTTuliTPVV3-36" value="" style="html=1;points=[[0,0,0,0,5],[0,1,0,0,-5],[1,0,0,0,5],[1,1,0,0,-5]];perimeter=orthogonalPerimeter;outlineConnect=0;targetShapes=umlLifeline;portConstraint=eastwest;newEdgeStyle={&quot;curved&quot;:0,&quot;rounded&quot;:0};" vertex="1" parent="1">
          <mxGeometry x="759.5" y="518" width="10" height="172" as="geometry" />
        </mxCell>
        <mxCell id="WNuxRkzJSGTTuliTPVV3-38" value="confirmsRating()" style="html=1;verticalAlign=bottom;endArrow=block;curved=0;rounded=0;" edge="1" parent="1" target="WNuxRkzJSGTTuliTPVV3-36">
          <mxGeometry width="80" relative="1" as="geometry">
            <mxPoint x="589" y="526" as="sourcePoint" />
            <mxPoint x="669" y="526" as="targetPoint" />
          </mxGeometry>
        </mxCell>
        <mxCell id="WNuxRkzJSGTTuliTPVV3-40" value="" style="endArrow=none;dashed=1;html=1;rounded=0;exitX=0.929;exitY=1.002;exitDx=0;exitDy=0;exitPerimeter=0;" edge="1" parent="1" source="WNuxRkzJSGTTuliTPVV3-65" target="WNuxRkzJSGTTuliTPVV3-39">
          <mxGeometry width="50" height="50" relative="1" as="geometry">
            <mxPoint x="888" y="1022" as="sourcePoint" />
            <mxPoint x="892" y="73" as="targetPoint" />
          </mxGeometry>
        </mxCell>
        <mxCell id="WNuxRkzJSGTTuliTPVV3-39" value="" style="html=1;points=[[0,0,0,0,5],[0,1,0,0,-5],[1,0,0,0,5],[1,1,0,0,-5]];perimeter=orthogonalPerimeter;outlineConnect=0;targetShapes=umlLifeline;portConstraint=eastwest;newEdgeStyle={&quot;curved&quot;:0,&quot;rounded&quot;:0};" vertex="1" parent="1">
          <mxGeometry x="885" y="552" width="10" height="68" as="geometry" />
        </mxCell>
        <mxCell id="WNuxRkzJSGTTuliTPVV3-41" value="createsRating()" style="html=1;verticalAlign=bottom;endArrow=block;curved=0;rounded=0;" edge="1" parent="1" target="WNuxRkzJSGTTuliTPVV3-39">
          <mxGeometry width="80" relative="1" as="geometry">
            <mxPoint x="770" y="565.5" as="sourcePoint" />
            <mxPoint x="850" y="565.5" as="targetPoint" />
          </mxGeometry>
        </mxCell>
        <mxCell id="WNuxRkzJSGTTuliTPVV3-42" value="returnsResult()" style="html=1;verticalAlign=bottom;endArrow=open;dashed=1;endSize=8;curved=0;rounded=0;" edge="1" parent="1" target="WNuxRkzJSGTTuliTPVV3-36">
          <mxGeometry relative="1" as="geometry">
            <mxPoint x="885" y="599" as="sourcePoint" />
            <mxPoint x="805" y="599" as="targetPoint" />
          </mxGeometry>
        </mxCell>
        <mxCell id="WNuxRkzJSGTTuliTPVV3-44" value="CalculatesRating()" style="html=1;align=left;spacingLeft=2;endArrow=block;rounded=0;edgeStyle=orthogonalEdgeStyle;curved=0;rounded=0;" edge="1" parent="1">
          <mxGeometry relative="1" as="geometry">
            <mxPoint x="773" y="633" as="sourcePoint" />
            <Array as="points">
              <mxPoint x="803" y="663" />
            </Array>
            <mxPoint x="778" y="663" as="targetPoint" />
          </mxGeometry>
        </mxCell>
        <mxCell id="WNuxRkzJSGTTuliTPVV3-45" value="returnConfirmationResult()" style="html=1;verticalAlign=bottom;endArrow=open;dashed=1;endSize=8;curved=0;rounded=0;" edge="1" parent="1" target="WNuxRkzJSGTTuliTPVV3-31">
          <mxGeometry relative="1" as="geometry">
            <mxPoint x="759.5" y="684" as="sourcePoint" />
            <mxPoint x="679.5" y="684" as="targetPoint" />
          </mxGeometry>
        </mxCell>
        <mxCell id="WNuxRkzJSGTTuliTPVV3-46" value="" style="html=1;points=[[0,0,0,0,5],[0,1,0,0,-5],[1,0,0,0,5],[1,1,0,0,-5]];perimeter=orthogonalPerimeter;outlineConnect=0;targetShapes=umlLifeline;portConstraint=eastwest;newEdgeStyle={&quot;curved&quot;:0,&quot;rounded&quot;:0};" vertex="1" parent="1">
          <mxGeometry x="206.5" y="653" width="10" height="104" as="geometry" />
        </mxCell>
        <mxCell id="WNuxRkzJSGTTuliTPVV3-48" value="returnResultToScreen()" style="html=1;verticalAlign=bottom;endArrow=open;dashed=1;endSize=8;curved=0;rounded=0;" edge="1" parent="1" target="WNuxRkzJSGTTuliTPVV3-46">
          <mxGeometry x="0.5102" relative="1" as="geometry">
            <mxPoint x="576" y="702" as="sourcePoint" />
            <mxPoint x="496" y="702" as="targetPoint" />
            <mxPoint as="offset" />
          </mxGeometry>
        </mxCell>
        <mxCell id="WNuxRkzJSGTTuliTPVV3-49" value="" style="endArrow=none;dashed=1;html=1;rounded=0;entryX=0;entryY=1;entryDx=0;entryDy=-5;entryPerimeter=0;" edge="1" parent="1" source="WNuxRkzJSGTTuliTPVV3-55">
          <mxGeometry width="50" height="50" relative="1" as="geometry">
            <mxPoint x="212.5" y="997" as="sourcePoint" />
            <mxPoint x="210.5" y="757" as="targetPoint" />
          </mxGeometry>
        </mxCell>
        <mxCell id="WNuxRkzJSGTTuliTPVV3-50" value="displaySuccessMessage()" style="html=1;verticalAlign=bottom;endArrow=open;dashed=1;endSize=8;curved=0;rounded=0;" edge="1" parent="1">
          <mxGeometry relative="1" as="geometry">
            <mxPoint x="206.5" y="751" as="sourcePoint" />
            <mxPoint x="72" y="751" as="targetPoint" />
          </mxGeometry>
        </mxCell>
        <mxCell id="WNuxRkzJSGTTuliTPVV3-52" value="" style="endArrow=none;dashed=1;html=1;rounded=0;exitX=0.589;exitY=0.999;exitDx=0;exitDy=0;exitPerimeter=0;" edge="1" parent="1" source="WNuxRkzJSGTTuliTPVV3-65" target="WNuxRkzJSGTTuliTPVV3-51">
          <mxGeometry width="50" height="50" relative="1" as="geometry">
            <mxPoint x="577" y="1013" as="sourcePoint" />
            <mxPoint x="577" y="702" as="targetPoint" />
          </mxGeometry>
        </mxCell>
        <mxCell id="WNuxRkzJSGTTuliTPVV3-51" value="" style="html=1;points=[[0,0,0,0,5],[0,1,0,0,-5],[1,0,0,0,5],[1,1,0,0,-5]];perimeter=orthogonalPerimeter;outlineConnect=0;targetShapes=umlLifeline;portConstraint=eastwest;newEdgeStyle={&quot;curved&quot;:0,&quot;rounded&quot;:0};" vertex="1" parent="1">
          <mxGeometry x="572" y="808" width="10" height="155" as="geometry" />
        </mxCell>
        <mxCell id="WNuxRkzJSGTTuliTPVV3-54" value="chooseCancel()" style="html=1;verticalAlign=bottom;endArrow=block;curved=0;rounded=0;" edge="1" parent="1">
          <mxGeometry width="80" relative="1" as="geometry">
            <mxPoint x="70" y="817" as="sourcePoint" />
            <mxPoint x="570" y="817" as="targetPoint" />
          </mxGeometry>
        </mxCell>
        <mxCell id="WNuxRkzJSGTTuliTPVV3-55" value="" style="html=1;points=[[0,0,0,0,5],[0,1,0,0,-5],[1,0,0,0,5],[1,1,0,0,-5]];perimeter=orthogonalPerimeter;outlineConnect=0;targetShapes=umlLifeline;portConstraint=eastwest;newEdgeStyle={&quot;curved&quot;:0,&quot;rounded&quot;:0};" vertex="1" parent="1">
          <mxGeometry x="206.5" y="848" width="10" height="104" as="geometry" />
        </mxCell>
        <mxCell id="WNuxRkzJSGTTuliTPVV3-57" value="" style="endArrow=none;dashed=1;html=1;rounded=0;exitX=0.184;exitY=1.002;exitDx=0;exitDy=0;exitPerimeter=0;" edge="1" parent="1" source="WNuxRkzJSGTTuliTPVV3-65" target="WNuxRkzJSGTTuliTPVV3-55">
          <mxGeometry width="50" height="50" relative="1" as="geometry">
            <mxPoint x="212" y="1004" as="sourcePoint" />
            <mxPoint x="248" y="952" as="targetPoint" />
          </mxGeometry>
        </mxCell>
        <mxCell id="WNuxRkzJSGTTuliTPVV3-58" value="returnResultToScreen()" style="html=1;verticalAlign=bottom;endArrow=open;dashed=1;endSize=8;curved=0;rounded=0;" edge="1" parent="1">
          <mxGeometry x="0.5102" relative="1" as="geometry">
            <mxPoint x="570" y="867" as="sourcePoint" />
            <mxPoint x="216.5" y="867" as="targetPoint" />
            <mxPoint as="offset" />
          </mxGeometry>
        </mxCell>
        <mxCell id="WNuxRkzJSGTTuliTPVV3-59" value="&lt;font style=&quot;font-size: 9px;&quot;&gt;displayCancellationMessage()&lt;/font&gt;" style="html=1;verticalAlign=bottom;endArrow=open;dashed=1;endSize=8;curved=0;rounded=0;" edge="1" parent="1">
          <mxGeometry relative="1" as="geometry">
            <mxPoint x="206.5" y="926" as="sourcePoint" />
            <mxPoint x="66" y="926" as="targetPoint" />
          </mxGeometry>
        </mxCell>
        <mxCell id="WNuxRkzJSGTTuliTPVV3-60" value="alt" style="shape=umlFrame;whiteSpace=wrap;html=1;pointerEvents=0;" vertex="1" parent="1">
          <mxGeometry x="25" y="160" width="962" height="869" as="geometry" />
        </mxCell>
        <mxCell id="WNuxRkzJSGTTuliTPVV3-61" value="" style="endArrow=none;dashed=1;html=1;rounded=0;exitX=0.004;exitY=0.129;exitDx=0;exitDy=0;exitPerimeter=0;" edge="1" parent="1" source="WNuxRkzJSGTTuliTPVV3-60">
          <mxGeometry width="50" height="50" relative="1" as="geometry">
            <mxPoint x="219" y="309" as="sourcePoint" />
            <mxPoint x="985" y="272" as="targetPoint" />
          </mxGeometry>
        </mxCell>
        <mxCell id="WNuxRkzJSGTTuliTPVV3-62" value="[Existing Rating]" style="text;html=1;align=center;verticalAlign=middle;whiteSpace=wrap;rounded=0;" vertex="1" parent="1">
          <mxGeometry x="92" y="165" width="99" height="30" as="geometry" />
        </mxCell>
        <mxCell id="WNuxRkzJSGTTuliTPVV3-64" value="" style="endArrow=none;dashed=1;html=1;rounded=0;" edge="1" parent="1" target="WNuxRkzJSGTTuliTPVV3-63">
          <mxGeometry width="50" height="50" relative="1" as="geometry">
            <mxPoint x="69" y="994" as="sourcePoint" />
            <mxPoint x="71" y="112" as="targetPoint" />
          </mxGeometry>
        </mxCell>
        <mxCell id="WNuxRkzJSGTTuliTPVV3-63" value="[Non-existing Rating]" style="text;html=1;align=center;verticalAlign=middle;whiteSpace=wrap;rounded=0;" vertex="1" parent="1">
          <mxGeometry x="21.5" y="281" width="99" height="30" as="geometry" />
        </mxCell>
        <mxCell id="WNuxRkzJSGTTuliTPVV3-65" value="alt" style="shape=umlFrame;whiteSpace=wrap;html=1;pointerEvents=0;" vertex="1" parent="1">
          <mxGeometry x="40" y="472" width="905" height="526" as="geometry" />
        </mxCell>
        <mxCell id="WNuxRkzJSGTTuliTPVV3-66" value="" style="endArrow=none;dashed=1;html=1;rounded=0;exitX=0.004;exitY=0.599;exitDx=0;exitDy=0;exitPerimeter=0;entryX=1;entryY=0.599;entryDx=0;entryDy=0;entryPerimeter=0;" edge="1" parent="1" source="WNuxRkzJSGTTuliTPVV3-65" target="WNuxRkzJSGTTuliTPVV3-65">
          <mxGeometry width="50" height="50" relative="1" as="geometry">
            <mxPoint x="484" y="584" as="sourcePoint" />
            <mxPoint x="534" y="534" as="targetPoint" />
          </mxGeometry>
        </mxCell>
        <mxCell id="WNuxRkzJSGTTuliTPVV3-67" value="[Chooses Confirm]" style="text;html=1;align=center;verticalAlign=middle;whiteSpace=wrap;rounded=0;" vertex="1" parent="1">
          <mxGeometry x="91.5" y="472" width="125" height="30" as="geometry" />
        </mxCell>
        <mxCell id="WNuxRkzJSGTTuliTPVV3-68" value="[Chooses Cancel]" style="text;html=1;align=center;verticalAlign=middle;whiteSpace=wrap;rounded=0;" vertex="1" parent="1">
          <mxGeometry x="34" y="786" width="125" height="30" as="geometry" />
        </mxCell>
      </root>
    </mxGraphModel>
  </diagram>
</mxfile>
